<?xml version="1.0" encoding="UTF-8"?>
<svg xmlns="http://www.w3.org/2000/svg" xmlns:xlink="http://www.w3.org/1999/xlink" width="0px" height="0px" viewBox="0 0 95 31" version="1.1">
<g id="surface1">
<path style=" stroke:none;fill-rule:nonzero;fill:rgb(17.254902%,21.176471%,50.196078%);fill-opacity:1;" d="M 2.734375 17.597656 L 15.898438 4.363281 L 22.90625 11.402344 L 16.097656 18.246094 L 13.664062 18.246094 L 12.621094 19.296875 L 15.898438 22.59375 L 27.078125 11.355469 L 17.390625 1.613281 C 17.390625 1.613281 16.941406 1.164062 15.949219 1.164062 C 15.105469 1.164062 14.507812 1.613281 14.507812 1.613281 L 1.9375 14.300781 C 1.9375 14.300781 1.339844 15 1.738281 15.898438 C 2.1875 16.847656 2.386719 17.347656 2.484375 17.546875 C 2.582031 17.648438 2.683594 17.648438 2.734375 17.597656 Z M 2.734375 17.597656 "/>
<path style=" stroke:none;fill-rule:nonzero;fill:rgb(7.843137%,65.490196%,87.843137%);fill-opacity:1;" d="M 28.269531 13.703125 L 15.054688 26.988281 L 8.097656 19.945312 L 14.90625 13.050781 L 17.339844 13.050781 L 18.382812 12.003906 L 15.105469 8.707031 L 3.875 19.945312 L 13.5625 29.683594 C 13.5625 29.683594 14.011719 30.132812 15.003906 30.132812 C 15.851562 30.132812 16.445312 29.683594 16.445312 29.683594 L 29.015625 17 C 29.015625 17 29.613281 16.300781 29.214844 15.398438 C 28.769531 14.449219 28.570312 13.953125 28.46875 13.75 C 28.421875 13.652344 28.320312 13.652344 28.269531 13.703125 Z M 28.269531 13.703125 "/>
<path style=" stroke:none;fill-rule:nonzero;fill:rgb(7.843137%,65.490196%,87.843137%);fill-opacity:1;" d="M 34.679688 8.808594 C 35.027344 9.105469 35.277344 9.507812 35.375 9.957031 L 34.285156 9.957031 C 34.183594 9.757812 34.085938 9.605469 33.9375 9.507812 C 33.785156 9.40625 33.585938 9.355469 33.339844 9.355469 C 33.042969 9.355469 32.792969 9.457031 32.59375 9.707031 C 32.394531 9.957031 32.296875 10.207031 32.296875 10.605469 C 32.296875 11.003906 32.394531 11.253906 32.59375 11.503906 C 32.792969 11.753906 33.042969 11.855469 33.339844 11.855469 C 33.585938 11.855469 33.785156 11.804688 33.9375 11.703125 C 34.085938 11.605469 34.234375 11.453125 34.285156 11.253906 L 35.375 11.253906 C 35.277344 11.753906 35.027344 12.152344 34.679688 12.402344 C 34.332031 12.703125 33.886719 12.851562 33.339844 12.851562 C 32.941406 12.851562 32.542969 12.753906 32.246094 12.554688 C 31.949219 12.351562 31.699219 12.105469 31.5 11.753906 C 31.351562 11.402344 31.253906 11.054688 31.253906 10.605469 C 31.253906 10.15625 31.351562 9.804688 31.5 9.457031 C 31.648438 9.105469 31.898438 8.855469 32.246094 8.65625 C 32.542969 8.457031 32.941406 8.359375 33.339844 8.359375 C 33.835938 8.40625 34.285156 8.558594 34.679688 8.808594 Z M 34.679688 8.808594 "/>
<path style=" stroke:none;fill-rule:nonzero;fill:rgb(7.843137%,65.490196%,87.843137%);fill-opacity:1;" d="M 38.359375 9.507812 C 38.605469 9.65625 38.804688 9.855469 38.953125 10.105469 C 39.101562 10.355469 39.203125 10.65625 39.203125 11.054688 C 39.203125 11.453125 39.101562 11.703125 38.953125 12.003906 C 38.804688 12.253906 38.605469 12.453125 38.359375 12.601562 C 38.109375 12.753906 37.8125 12.804688 37.464844 12.804688 C 37.117188 12.804688 36.816406 12.753906 36.570312 12.601562 C 36.320312 12.453125 36.121094 12.253906 35.921875 12.003906 C 35.773438 11.753906 35.675781 11.453125 35.675781 11.054688 C 35.675781 10.65625 35.773438 10.40625 35.921875 10.105469 C 36.070312 9.855469 36.269531 9.65625 36.570312 9.507812 C 36.816406 9.355469 37.117188 9.304688 37.464844 9.304688 C 37.8125 9.304688 38.109375 9.355469 38.359375 9.507812 Z M 37.015625 10.40625 C 36.867188 10.554688 36.816406 10.753906 36.816406 11.054688 C 36.816406 11.355469 36.867188 11.554688 37.015625 11.652344 C 37.164062 11.753906 37.3125 11.855469 37.511719 11.855469 C 37.710938 11.855469 37.859375 11.804688 38.011719 11.652344 C 38.160156 11.503906 38.207031 11.304688 38.207031 11.054688 C 38.207031 10.804688 38.160156 10.554688 38.011719 10.40625 C 37.859375 10.253906 37.710938 10.207031 37.511719 10.207031 C 37.3125 10.207031 37.117188 10.304688 37.015625 10.40625 Z M 37.015625 10.40625 "/>
<path style=" stroke:none;fill-rule:nonzero;fill:rgb(7.843137%,65.490196%,87.843137%);fill-opacity:1;" d="M 42.78125 9.707031 C 43.027344 9.957031 43.128906 10.304688 43.128906 10.804688 L 43.128906 12.804688 L 42.085938 12.804688 L 42.085938 10.953125 C 42.085938 10.703125 42.035156 10.554688 41.886719 10.40625 C 41.785156 10.253906 41.585938 10.207031 41.4375 10.207031 C 41.238281 10.207031 41.039062 10.253906 40.941406 10.40625 C 40.84375 10.554688 40.742188 10.753906 40.742188 10.953125 L 40.742188 12.753906 L 39.75 12.753906 L 39.75 9.355469 L 40.792969 9.355469 L 40.792969 9.957031 C 40.890625 9.757812 41.039062 9.605469 41.238281 9.457031 C 41.4375 9.355469 41.636719 9.257812 41.886719 9.257812 C 42.28125 9.304688 42.582031 9.457031 42.78125 9.707031 Z M 42.78125 9.707031 "/>
<path style=" stroke:none;fill-rule:nonzero;fill:rgb(7.843137%,65.490196%,87.843137%);fill-opacity:1;" d="M 46.855469 9.707031 C 47.101562 9.957031 47.203125 10.304688 47.203125 10.804688 L 47.203125 12.804688 L 46.160156 12.804688 L 46.160156 10.953125 C 46.160156 10.703125 46.109375 10.554688 45.960938 10.40625 C 45.859375 10.253906 45.660156 10.207031 45.511719 10.207031 C 45.3125 10.207031 45.113281 10.253906 45.015625 10.40625 C 44.917969 10.554688 44.816406 10.753906 44.816406 10.953125 L 44.816406 12.753906 L 43.773438 12.753906 L 43.773438 9.355469 L 44.816406 9.355469 L 44.816406 9.957031 C 44.917969 9.757812 45.066406 9.605469 45.265625 9.457031 C 45.460938 9.355469 45.660156 9.257812 45.910156 9.257812 C 46.308594 9.304688 46.65625 9.457031 46.855469 9.707031 Z M 46.855469 9.707031 "/>
<path style=" stroke:none;fill-rule:nonzero;fill:rgb(7.843137%,65.490196%,87.843137%);fill-opacity:1;" d="M 51.027344 11.253906 L 48.691406 11.253906 C 48.691406 11.503906 48.792969 11.703125 48.890625 11.804688 C 48.992188 11.902344 49.140625 11.953125 49.339844 11.953125 C 49.488281 11.953125 49.636719 11.902344 49.734375 11.855469 C 49.835938 11.804688 49.886719 11.652344 49.933594 11.554688 L 51.027344 11.554688 C 50.976562 11.804688 50.878906 12.003906 50.730469 12.203125 C 50.582031 12.402344 50.382812 12.554688 50.183594 12.652344 C 49.933594 12.753906 49.6875 12.804688 49.4375 12.804688 C 49.089844 12.804688 48.839844 12.753906 48.542969 12.601562 C 48.296875 12.453125 48.097656 12.253906 47.945312 12.003906 C 47.796875 11.753906 47.75 11.453125 47.75 11.054688 C 47.75 10.703125 47.796875 10.40625 47.945312 10.105469 C 48.097656 9.855469 48.296875 9.65625 48.542969 9.507812 C 48.792969 9.355469 49.089844 9.304688 49.4375 9.304688 C 49.785156 9.304688 50.082031 9.355469 50.332031 9.507812 C 50.582031 9.65625 50.777344 9.855469 50.929688 10.105469 C 51.078125 10.355469 51.128906 10.65625 51.128906 10.953125 C 51.078125 11.054688 51.027344 11.15625 51.027344 11.253906 Z M 49.835938 10.304688 C 49.734375 10.207031 49.539062 10.15625 49.386719 10.15625 C 49.1875 10.15625 49.039062 10.207031 48.941406 10.304688 C 48.839844 10.40625 48.742188 10.605469 48.742188 10.804688 L 50.035156 10.804688 C 50.035156 10.554688 49.984375 10.40625 49.835938 10.304688 Z M 49.835938 10.304688 "/>
<path style=" stroke:none;fill-rule:nonzero;fill:rgb(7.843137%,65.490196%,87.843137%);fill-opacity:1;" d="M 54.207031 9.65625 C 54.503906 9.90625 54.703125 10.253906 54.753906 10.65625 L 53.660156 10.65625 C 53.613281 10.503906 53.5625 10.40625 53.460938 10.304688 C 53.363281 10.207031 53.214844 10.207031 53.066406 10.207031 C 52.867188 10.207031 52.71875 10.253906 52.617188 10.40625 C 52.519531 10.554688 52.46875 10.753906 52.46875 11.054688 C 52.46875 11.355469 52.519531 11.554688 52.617188 11.703125 C 52.71875 11.855469 52.867188 11.902344 53.066406 11.902344 C 53.214844 11.902344 53.363281 11.855469 53.460938 11.804688 C 53.5625 11.703125 53.613281 11.605469 53.660156 11.453125 L 54.753906 11.453125 C 54.65625 11.855469 54.503906 12.203125 54.207031 12.453125 C 53.910156 12.703125 53.5625 12.804688 53.113281 12.804688 C 52.765625 12.804688 52.519531 12.753906 52.21875 12.601562 C 51.972656 12.453125 51.773438 12.253906 51.625 12.003906 C 51.476562 11.753906 51.425781 11.453125 51.425781 11.054688 C 51.425781 10.703125 51.476562 10.40625 51.625 10.105469 C 51.773438 9.855469 51.972656 9.65625 52.21875 9.507812 C 52.46875 9.355469 52.765625 9.304688 53.113281 9.304688 C 53.5625 9.304688 53.910156 9.40625 54.207031 9.65625 Z M 54.207031 9.65625 "/>
<path style=" stroke:none;fill-rule:nonzero;fill:rgb(7.843137%,65.490196%,87.843137%);fill-opacity:1;" d="M 57.1875 11.855469 L 57.1875 12.753906 L 56.742188 12.753906 C 56.34375 12.753906 56.046875 12.652344 55.847656 12.453125 C 55.648438 12.253906 55.5 11.953125 55.5 11.453125 L 55.5 10.207031 L 55.050781 10.207031 L 55.050781 9.304688 L 55.5 9.304688 L 55.5 8.507812 L 56.542969 8.507812 L 56.542969 9.355469 L 57.238281 9.355469 L 57.238281 10.253906 L 56.542969 10.253906 L 56.542969 11.503906 C 56.542969 11.652344 56.59375 11.753906 56.640625 11.804688 C 56.691406 11.855469 56.792969 11.902344 56.890625 11.902344 L 57.1875 11.902344 Z M 57.1875 11.855469 "/>
<path style=" stroke:none;fill-rule:nonzero;fill:rgb(7.843137%,65.490196%,87.843137%);fill-opacity:1;" d="M 60.914062 11.253906 L 58.578125 11.253906 C 58.578125 11.503906 58.679688 11.703125 58.777344 11.804688 C 58.878906 11.902344 59.027344 11.953125 59.226562 11.953125 C 59.375 11.953125 59.523438 11.902344 59.625 11.855469 C 59.722656 11.804688 59.773438 11.652344 59.820312 11.554688 L 60.914062 11.554688 C 60.867188 11.804688 60.765625 12.003906 60.617188 12.203125 C 60.46875 12.402344 60.269531 12.554688 60.070312 12.652344 C 59.820312 12.753906 59.574219 12.804688 59.324219 12.804688 C 58.976562 12.804688 58.730469 12.753906 58.429688 12.601562 C 58.183594 12.453125 57.984375 12.253906 57.835938 12.003906 C 57.6875 11.753906 57.636719 11.453125 57.636719 11.054688 C 57.636719 10.703125 57.6875 10.40625 57.835938 10.105469 C 57.984375 9.855469 58.183594 9.65625 58.429688 9.507812 C 58.679688 9.355469 58.976562 9.304688 59.324219 9.304688 C 59.671875 9.304688 59.972656 9.355469 60.21875 9.507812 C 60.46875 9.65625 60.667969 9.855469 60.816406 10.105469 C 60.964844 10.355469 61.015625 10.65625 61.015625 10.953125 C 60.914062 11.054688 60.914062 11.15625 60.914062 11.253906 Z M 59.722656 10.304688 C 59.625 10.207031 59.425781 10.15625 59.277344 10.15625 C 59.078125 10.15625 58.929688 10.207031 58.828125 10.304688 C 58.730469 10.40625 58.628906 10.605469 58.628906 10.804688 L 59.921875 10.804688 C 59.921875 10.554688 59.820312 10.40625 59.722656 10.304688 Z M 59.722656 10.304688 "/>
<path style=" stroke:none;fill-rule:nonzero;fill:rgb(7.843137%,65.490196%,87.843137%);fill-opacity:1;" d="M 63.398438 9.507812 C 63.597656 9.605469 63.699219 9.804688 63.796875 10.003906 L 63.796875 8.257812 L 64.839844 8.257812 L 64.839844 12.753906 L 63.796875 12.753906 L 63.796875 12.152344 C 63.699219 12.351562 63.597656 12.503906 63.398438 12.652344 C 63.199219 12.804688 63.003906 12.851562 62.753906 12.851562 C 62.457031 12.851562 62.207031 12.804688 62.007812 12.652344 C 61.808594 12.503906 61.609375 12.304688 61.511719 12.054688 C 61.363281 11.804688 61.3125 11.503906 61.3125 11.105469 C 61.3125 10.753906 61.363281 10.457031 61.511719 10.15625 C 61.660156 9.90625 61.808594 9.707031 62.007812 9.554688 C 62.207031 9.40625 62.457031 9.355469 62.753906 9.355469 C 63.003906 9.304688 63.199219 9.355469 63.398438 9.507812 Z M 62.554688 10.457031 C 62.40625 10.605469 62.355469 10.804688 62.355469 11.054688 C 62.355469 11.304688 62.40625 11.503906 62.554688 11.652344 C 62.703125 11.804688 62.851562 11.855469 63.101562 11.855469 C 63.300781 11.855469 63.5 11.753906 63.648438 11.605469 C 63.796875 11.453125 63.847656 11.253906 63.847656 11.003906 C 63.847656 10.753906 63.796875 10.554688 63.648438 10.40625 C 63.5 10.253906 63.351562 10.207031 63.101562 10.207031 C 62.851562 10.207031 62.652344 10.304688 62.554688 10.457031 Z M 62.554688 10.457031 "/>
<path style=" stroke:none;fill-rule:nonzero;fill:rgb(7.843137%,65.490196%,87.843137%);fill-opacity:1;" d="M 70.058594 8.808594 C 70.40625 9.058594 70.605469 9.40625 70.703125 9.90625 L 69.609375 9.90625 C 69.5625 9.757812 69.410156 9.605469 69.261719 9.554688 C 69.113281 9.457031 68.914062 9.40625 68.714844 9.40625 C 68.367188 9.40625 68.121094 9.507812 67.921875 9.757812 C 67.722656 9.957031 67.621094 10.253906 67.621094 10.65625 C 67.621094 11.054688 67.722656 11.402344 67.921875 11.605469 C 68.121094 11.804688 68.417969 11.953125 68.816406 11.953125 C 69.0625 11.953125 69.261719 11.902344 69.460938 11.753906 C 69.660156 11.605469 69.757812 11.402344 69.859375 11.15625 L 68.566406 11.15625 L 68.566406 10.40625 L 70.703125 10.40625 L 70.703125 11.453125 C 70.605469 11.703125 70.503906 11.953125 70.304688 12.152344 C 70.105469 12.351562 69.910156 12.554688 69.609375 12.703125 C 69.3125 12.851562 69.015625 12.902344 68.667969 12.902344 C 68.21875 12.902344 67.871094 12.804688 67.523438 12.601562 C 67.226562 12.402344 66.976562 12.152344 66.777344 11.804688 C 66.578125 11.453125 66.53125 11.105469 66.53125 10.65625 C 66.53125 10.207031 66.628906 9.855469 66.777344 9.507812 C 66.976562 9.15625 67.175781 8.90625 67.523438 8.707031 C 67.820312 8.507812 68.21875 8.40625 68.617188 8.40625 C 69.261719 8.40625 69.710938 8.507812 70.058594 8.808594 Z M 70.058594 8.808594 "/>
<path style=" stroke:none;fill-rule:nonzero;fill:rgb(7.843137%,65.490196%,87.843137%);fill-opacity:1;" d="M 72.839844 9.507812 C 73.039062 9.40625 73.238281 9.304688 73.484375 9.304688 L 73.484375 10.40625 L 73.1875 10.40625 C 72.9375 10.40625 72.691406 10.457031 72.542969 10.605469 C 72.394531 10.703125 72.292969 10.90625 72.292969 11.203125 L 72.292969 12.753906 L 71.25 12.753906 L 71.25 9.355469 L 72.292969 9.355469 L 72.292969 10.003906 C 72.492188 9.804688 72.640625 9.605469 72.839844 9.507812 Z M 72.839844 9.507812 "/>
<path style=" stroke:none;fill-rule:nonzero;fill:rgb(7.843137%,65.490196%,87.843137%);fill-opacity:1;" d="M 76.367188 9.507812 C 76.617188 9.65625 76.816406 9.855469 76.964844 10.105469 C 77.113281 10.355469 77.210938 10.65625 77.210938 11.054688 C 77.210938 11.453125 77.113281 11.703125 76.964844 12.003906 C 76.816406 12.253906 76.617188 12.453125 76.367188 12.601562 C 76.121094 12.753906 75.820312 12.804688 75.472656 12.804688 C 75.125 12.804688 74.828125 12.753906 74.578125 12.601562 C 74.332031 12.453125 74.132812 12.253906 73.984375 12.003906 C 73.832031 11.753906 73.734375 11.453125 73.734375 11.054688 C 73.734375 10.65625 73.832031 10.40625 73.984375 10.105469 C 74.132812 9.855469 74.332031 9.65625 74.578125 9.507812 C 74.828125 9.355469 75.125 9.304688 75.472656 9.304688 C 75.820312 9.304688 76.121094 9.355469 76.367188 9.507812 Z M 75.027344 10.40625 C 74.878906 10.554688 74.828125 10.753906 74.828125 11.054688 C 74.828125 11.355469 74.878906 11.554688 75.027344 11.652344 C 75.175781 11.753906 75.324219 11.855469 75.523438 11.855469 C 75.722656 11.855469 75.871094 11.804688 76.019531 11.652344 C 76.167969 11.503906 76.21875 11.304688 76.21875 11.054688 C 76.21875 10.804688 76.167969 10.554688 76.019531 10.40625 C 75.871094 10.253906 75.722656 10.207031 75.523438 10.207031 C 75.324219 10.207031 75.125 10.304688 75.027344 10.40625 Z M 75.027344 10.40625 "/>
<path style=" stroke:none;fill-rule:nonzero;fill:rgb(7.843137%,65.490196%,87.843137%);fill-opacity:1;" d="M 81.085938 9.355469 L 81.085938 12.753906 L 80.042969 12.753906 L 80.042969 12.152344 C 79.945312 12.351562 79.796875 12.503906 79.597656 12.652344 C 79.398438 12.804688 79.199219 12.851562 78.953125 12.851562 C 78.554688 12.851562 78.253906 12.703125 78.058594 12.453125 C 77.859375 12.203125 77.710938 11.855469 77.710938 11.355469 L 77.710938 9.355469 L 78.753906 9.355469 L 78.753906 11.203125 C 78.753906 11.453125 78.800781 11.605469 78.953125 11.753906 C 79.050781 11.902344 79.25 11.953125 79.449219 11.953125 C 79.648438 11.953125 79.847656 11.902344 79.945312 11.753906 C 80.042969 11.605469 80.144531 11.402344 80.144531 11.203125 L 80.144531 9.40625 L 81.085938 9.40625 Z M 81.085938 9.355469 "/>
<path style=" stroke:none;fill-rule:nonzero;fill:rgb(7.843137%,65.490196%,87.843137%);fill-opacity:1;" d="M 84.617188 9.507812 C 84.8125 9.65625 85.011719 9.855469 85.113281 10.105469 C 85.261719 10.355469 85.3125 10.65625 85.3125 11.054688 C 85.3125 11.402344 85.261719 11.703125 85.113281 12.003906 C 84.964844 12.253906 84.8125 12.453125 84.617188 12.601562 C 84.417969 12.753906 84.167969 12.804688 83.871094 12.804688 C 83.621094 12.804688 83.375 12.753906 83.222656 12.601562 C 83.027344 12.503906 82.925781 12.304688 82.828125 12.105469 L 82.828125 14.351562 L 81.785156 14.351562 L 81.785156 9.355469 L 82.828125 9.355469 L 82.828125 9.957031 C 82.925781 9.757812 83.027344 9.605469 83.222656 9.457031 C 83.421875 9.355469 83.621094 9.257812 83.871094 9.257812 C 84.167969 9.304688 84.417969 9.355469 84.617188 9.507812 Z M 83.027344 10.457031 C 82.875 10.605469 82.828125 10.804688 82.828125 11.054688 C 82.828125 11.304688 82.875 11.503906 83.027344 11.652344 C 83.175781 11.804688 83.324219 11.902344 83.570312 11.902344 C 83.769531 11.902344 83.96875 11.855469 84.117188 11.703125 C 84.269531 11.554688 84.316406 11.355469 84.316406 11.105469 C 84.316406 10.855469 84.269531 10.65625 84.117188 10.503906 C 83.96875 10.355469 83.820312 10.304688 83.570312 10.304688 C 83.375 10.207031 83.175781 10.304688 83.027344 10.457031 Z M 83.027344 10.457031 "/>
<path style=" stroke:none;fill-rule:nonzero;fill:rgb(7.843137%,65.490196%,87.843137%);fill-opacity:1;" d="M 89.535156 9.507812 C 89.78125 9.65625 89.980469 9.855469 90.128906 10.105469 C 90.28125 10.355469 90.378906 10.65625 90.378906 11.054688 C 90.378906 11.453125 90.28125 11.703125 90.128906 12.003906 C 89.980469 12.253906 89.78125 12.453125 89.535156 12.601562 C 89.285156 12.753906 88.988281 12.804688 88.640625 12.804688 C 88.292969 12.804688 87.996094 12.753906 87.746094 12.601562 C 87.496094 12.453125 87.296875 12.253906 87.101562 12.003906 C 86.949219 11.753906 86.851562 11.453125 86.851562 11.054688 C 86.851562 10.65625 86.949219 10.40625 87.101562 10.105469 C 87.25 9.855469 87.449219 9.65625 87.746094 9.507812 C 87.996094 9.355469 88.292969 9.304688 88.640625 9.304688 C 88.988281 9.304688 89.285156 9.355469 89.535156 9.507812 Z M 88.144531 10.40625 C 87.996094 10.554688 87.945312 10.753906 87.945312 11.054688 C 87.945312 11.355469 87.996094 11.554688 88.144531 11.652344 C 88.292969 11.804688 88.441406 11.855469 88.640625 11.855469 C 88.839844 11.855469 88.988281 11.804688 89.136719 11.652344 C 89.285156 11.503906 89.335938 11.304688 89.335938 11.054688 C 89.335938 10.804688 89.285156 10.554688 89.136719 10.40625 C 88.988281 10.253906 88.839844 10.207031 88.640625 10.207031 C 88.441406 10.207031 88.292969 10.304688 88.144531 10.40625 Z M 88.144531 10.40625 "/>
<path style=" stroke:none;fill-rule:nonzero;fill:rgb(7.843137%,65.490196%,87.843137%);fill-opacity:1;" d="M 92.566406 8.90625 C 92.417969 8.90625 92.265625 8.957031 92.21875 9.007812 C 92.117188 9.058594 92.117188 9.207031 92.070312 9.355469 L 92.664062 9.355469 L 92.664062 10.253906 L 92.070312 10.253906 L 92.070312 12.804688 L 91.023438 12.804688 L 91.023438 10.253906 L 90.628906 10.253906 L 90.628906 9.355469 L 91.023438 9.355469 L 91.023438 9.304688 C 91.023438 8.90625 91.125 8.558594 91.371094 8.308594 C 91.621094 8.058594 91.96875 7.957031 92.417969 7.957031 C 92.515625 7.957031 92.566406 7.957031 92.613281 7.957031 L 92.613281 8.855469 Z M 92.566406 8.90625 "/>
<path style=" stroke:none;fill-rule:nonzero;fill:rgb(7.843137%,65.490196%,87.843137%);fill-opacity:1;" d="M 34.679688 16.148438 C 35.027344 16.449219 35.277344 16.847656 35.375 17.296875 L 34.285156 17.296875 C 34.183594 17.097656 34.085938 16.949219 33.9375 16.847656 C 33.785156 16.75 33.585938 16.699219 33.339844 16.699219 C 33.042969 16.699219 32.792969 16.796875 32.59375 17.046875 C 32.394531 17.25 32.296875 17.546875 32.296875 17.949219 C 32.296875 18.347656 32.394531 18.597656 32.59375 18.847656 C 32.792969 19.046875 33.042969 19.195312 33.339844 19.195312 C 33.585938 19.195312 33.785156 19.144531 33.9375 19.046875 C 34.085938 18.945312 34.234375 18.796875 34.285156 18.597656 L 35.375 18.597656 C 35.277344 19.097656 35.027344 19.496094 34.679688 19.746094 C 34.285156 19.996094 33.835938 20.09375 33.289062 20.09375 C 32.890625 20.09375 32.496094 19.996094 32.195312 19.796875 C 31.898438 19.597656 31.648438 19.347656 31.453125 18.996094 C 31.300781 18.648438 31.203125 18.296875 31.203125 17.847656 C 31.203125 17.398438 31.300781 17.046875 31.453125 16.699219 C 31.601562 16.347656 31.847656 16.097656 32.195312 15.898438 C 32.496094 15.699219 32.890625 15.601562 33.289062 15.601562 C 33.835938 15.699219 34.285156 15.851562 34.679688 16.148438 Z M 34.679688 16.148438 "/>
<path style=" stroke:none;fill-rule:nonzero;fill:rgb(7.843137%,65.490196%,87.843137%);fill-opacity:1;" d="M 38.359375 16.847656 C 38.605469 17 38.804688 17.199219 38.953125 17.449219 C 39.101562 17.699219 39.203125 17.996094 39.203125 18.398438 C 39.203125 18.746094 39.101562 19.046875 38.953125 19.347656 C 38.804688 19.597656 38.605469 19.796875 38.359375 19.945312 C 38.109375 20.09375 37.8125 20.144531 37.464844 20.144531 C 37.117188 20.144531 36.816406 20.09375 36.570312 19.945312 C 36.320312 19.796875 36.121094 19.597656 35.921875 19.347656 C 35.773438 19.097656 35.675781 18.796875 35.675781 18.398438 C 35.675781 18.046875 35.773438 17.746094 35.921875 17.449219 C 36.070312 17.199219 36.269531 17 36.570312 16.847656 C 36.816406 16.699219 37.117188 16.648438 37.464844 16.648438 C 37.8125 16.648438 38.109375 16.699219 38.359375 16.847656 Z M 37.015625 17.746094 C 36.867188 17.898438 36.816406 18.097656 36.816406 18.398438 C 36.816406 18.648438 36.867188 18.894531 37.015625 18.996094 C 37.164062 19.144531 37.3125 19.195312 37.511719 19.195312 C 37.710938 19.195312 37.859375 19.144531 38.011719 18.996094 C 38.160156 18.847656 38.207031 18.648438 38.207031 18.398438 C 38.207031 18.148438 38.160156 17.898438 38.011719 17.746094 C 37.859375 17.597656 37.710938 17.546875 37.511719 17.546875 C 37.3125 17.546875 37.117188 17.597656 37.015625 17.746094 Z M 37.015625 17.746094 "/>
<path style=" stroke:none;fill-rule:nonzero;fill:rgb(7.843137%,65.490196%,87.843137%);fill-opacity:1;" d="M 45.066406 17.046875 C 45.3125 17.296875 45.414062 17.648438 45.414062 18.148438 L 45.414062 20.144531 L 44.371094 20.144531 L 44.371094 18.296875 C 44.371094 18.097656 44.320312 17.898438 44.222656 17.796875 C 44.121094 17.699219 43.972656 17.597656 43.773438 17.597656 C 43.574219 17.597656 43.425781 17.648438 43.277344 17.796875 C 43.175781 17.949219 43.078125 18.097656 43.078125 18.347656 L 43.078125 20.144531 L 42.035156 20.144531 L 42.035156 18.296875 C 42.035156 18.097656 41.984375 17.898438 41.886719 17.796875 C 41.785156 17.699219 41.636719 17.597656 41.4375 17.597656 C 41.238281 17.597656 41.089844 17.648438 40.941406 17.796875 C 40.84375 17.949219 40.742188 18.097656 40.742188 18.347656 L 40.742188 20.144531 L 39.75 20.144531 L 39.75 16.75 L 40.792969 16.75 L 40.792969 17.347656 C 40.890625 17.148438 40.992188 17 41.191406 16.898438 C 41.386719 16.796875 41.585938 16.75 41.835938 16.75 C 42.085938 16.75 42.332031 16.796875 42.53125 16.949219 C 42.730469 17.046875 42.878906 17.25 42.980469 17.449219 C 43.078125 17.25 43.277344 17.046875 43.476562 16.949219 C 43.675781 16.796875 43.921875 16.75 44.121094 16.75 C 44.519531 16.648438 44.816406 16.75 45.066406 17.046875 Z M 45.066406 17.046875 "/>
<path style=" stroke:none;fill-rule:nonzero;fill:rgb(7.843137%,65.490196%,87.843137%);fill-opacity:1;" d="M 48.941406 16.847656 C 49.140625 17 49.339844 17.199219 49.4375 17.449219 C 49.585938 17.699219 49.636719 17.996094 49.636719 18.398438 C 49.636719 18.746094 49.585938 19.046875 49.4375 19.347656 C 49.289062 19.597656 49.140625 19.796875 48.941406 19.945312 C 48.742188 20.09375 48.492188 20.144531 48.195312 20.144531 C 47.945312 20.144531 47.699219 20.09375 47.550781 19.945312 C 47.402344 19.796875 47.25 19.644531 47.152344 19.445312 L 47.152344 21.695312 L 46.109375 21.695312 L 46.109375 16.699219 L 47.152344 16.699219 L 47.152344 17.296875 C 47.25 17.097656 47.351562 16.949219 47.550781 16.796875 C 47.75 16.648438 47.945312 16.597656 48.195312 16.597656 C 48.492188 16.648438 48.742188 16.699219 48.941406 16.847656 Z M 47.351562 17.746094 C 47.203125 17.898438 47.152344 18.097656 47.152344 18.347656 C 47.152344 18.597656 47.203125 18.796875 47.351562 18.945312 C 47.5 19.097656 47.648438 19.195312 47.898438 19.195312 C 48.097656 19.195312 48.296875 19.144531 48.445312 18.996094 C 48.59375 18.847656 48.644531 18.648438 48.644531 18.398438 C 48.644531 18.148438 48.59375 17.949219 48.445312 17.796875 C 48.296875 17.648438 48.144531 17.597656 47.898438 17.597656 C 47.648438 17.546875 47.5 17.648438 47.351562 17.746094 Z M 47.351562 17.746094 "/>
<path style=" stroke:none;fill-rule:nonzero;fill:rgb(7.843137%,65.490196%,87.843137%);fill-opacity:1;" d="M 52.121094 16.796875 C 52.320312 16.898438 52.417969 17.097656 52.519531 17.296875 L 52.519531 16.699219 L 53.5625 16.699219 L 53.5625 20.09375 L 52.519531 20.09375 L 52.519531 19.496094 C 52.417969 19.695312 52.269531 19.84375 52.121094 19.996094 C 51.972656 20.144531 51.722656 20.195312 51.476562 20.195312 C 51.175781 20.195312 50.929688 20.144531 50.730469 19.996094 C 50.53125 19.84375 50.332031 19.644531 50.234375 19.394531 C 50.082031 19.144531 50.035156 18.847656 50.035156 18.445312 C 50.035156 18.097656 50.082031 17.796875 50.234375 17.496094 C 50.382812 17.25 50.53125 17.046875 50.730469 16.898438 C 50.929688 16.75 51.175781 16.699219 51.476562 16.699219 C 51.722656 16.648438 51.921875 16.699219 52.121094 16.796875 Z M 51.277344 17.746094 C 51.128906 17.898438 51.078125 18.097656 51.078125 18.347656 C 51.078125 18.597656 51.128906 18.796875 51.277344 18.945312 C 51.425781 19.097656 51.574219 19.144531 51.824219 19.144531 C 52.019531 19.144531 52.21875 19.046875 52.371094 18.894531 C 52.519531 18.746094 52.566406 18.546875 52.566406 18.296875 C 52.566406 18.046875 52.519531 17.847656 52.371094 17.699219 C 52.21875 17.546875 52.070312 17.496094 51.824219 17.496094 C 51.574219 17.546875 51.375 17.597656 51.277344 17.746094 Z M 51.277344 17.746094 "/>
<path style=" stroke:none;fill-rule:nonzero;fill:rgb(7.843137%,65.490196%,87.843137%);fill-opacity:1;" d="M 57.289062 17.046875 C 57.535156 17.296875 57.636719 17.648438 57.636719 18.148438 L 57.636719 20.144531 L 56.59375 20.144531 L 56.59375 18.296875 C 56.59375 18.046875 56.542969 17.898438 56.394531 17.746094 C 56.292969 17.597656 56.097656 17.546875 55.945312 17.546875 C 55.746094 17.546875 55.550781 17.597656 55.449219 17.746094 C 55.351562 17.898438 55.25 18.097656 55.25 18.296875 L 55.25 20.09375 L 54.207031 20.09375 L 54.207031 16.699219 L 55.25 16.699219 L 55.25 17.296875 C 55.351562 17.097656 55.5 16.949219 55.699219 16.796875 C 55.898438 16.699219 56.097656 16.597656 56.34375 16.597656 C 56.742188 16.648438 57.089844 16.75 57.289062 17.046875 Z M 57.289062 17.046875 "/>
<path style=" stroke:none;fill-rule:nonzero;fill:rgb(7.843137%,65.490196%,87.843137%);fill-opacity:1;" d="M 58.382812 15.300781 C 58.480469 15.199219 58.628906 15.148438 58.828125 15.148438 C 59.027344 15.148438 59.175781 15.199219 59.277344 15.300781 C 59.375 15.398438 59.425781 15.550781 59.425781 15.699219 C 59.425781 15.851562 59.375 16 59.277344 16.097656 C 59.175781 16.199219 59.027344 16.25 58.828125 16.25 C 58.628906 16.25 58.480469 16.199219 58.382812 16.097656 C 58.28125 16 58.230469 15.851562 58.230469 15.699219 C 58.230469 15.550781 58.28125 15.449219 58.382812 15.300781 Z M 59.324219 16.699219 L 59.324219 20.09375 L 58.28125 20.09375 L 58.28125 16.699219 Z M 59.324219 16.699219 "/>
<path style=" stroke:none;fill-rule:nonzero;fill:rgb(7.843137%,65.490196%,87.843137%);fill-opacity:1;" d="M 63.199219 18.546875 L 60.867188 18.546875 C 60.867188 18.796875 60.964844 18.996094 61.0625 19.097656 C 61.164062 19.195312 61.3125 19.246094 61.511719 19.246094 C 61.660156 19.246094 61.808594 19.195312 61.910156 19.144531 C 62.007812 19.046875 62.058594 18.945312 62.109375 18.847656 L 63.199219 18.847656 C 63.152344 19.097656 63.050781 19.296875 62.902344 19.496094 C 62.753906 19.695312 62.554688 19.84375 62.355469 19.945312 C 62.109375 20.046875 61.859375 20.09375 61.609375 20.09375 C 61.261719 20.09375 61.015625 20.046875 60.714844 19.894531 C 60.417969 19.746094 60.269531 19.546875 60.121094 19.296875 C 59.972656 19.046875 59.921875 18.746094 59.921875 18.347656 C 59.921875 17.996094 59.972656 17.699219 60.121094 17.398438 C 60.269531 17.148438 60.46875 16.949219 60.714844 16.796875 C 60.964844 16.648438 61.261719 16.597656 61.609375 16.597656 C 61.957031 16.597656 62.257812 16.648438 62.503906 16.796875 C 62.753906 16.949219 62.953125 17.148438 63.101562 17.398438 C 63.25 17.648438 63.300781 17.949219 63.300781 18.246094 C 63.25 18.398438 63.199219 18.445312 63.199219 18.546875 Z M 62.007812 17.648438 C 61.910156 17.546875 61.761719 17.496094 61.5625 17.496094 C 61.363281 17.496094 61.214844 17.546875 61.113281 17.648438 C 61.015625 17.746094 60.914062 17.949219 60.914062 18.148438 L 62.207031 18.148438 C 62.207031 17.898438 62.15625 17.746094 62.007812 17.648438 Z M 62.007812 17.648438 "/>
<path style=" stroke:none;fill-rule:nonzero;fill:rgb(7.843137%,65.490196%,87.843137%);fill-opacity:1;" d="M 65.984375 16.949219 C 66.230469 17.148438 66.378906 17.449219 66.480469 17.796875 L 65.535156 17.796875 C 65.488281 17.648438 65.4375 17.546875 65.335938 17.449219 C 65.238281 17.347656 65.136719 17.347656 64.988281 17.347656 C 64.890625 17.347656 64.789062 17.398438 64.742188 17.449219 C 64.691406 17.496094 64.640625 17.546875 64.640625 17.648438 C 64.640625 17.746094 64.691406 17.847656 64.789062 17.898438 C 64.890625 17.949219 65.089844 17.996094 65.289062 18.046875 C 65.535156 18.097656 65.734375 18.148438 65.933594 18.246094 C 66.082031 18.296875 66.230469 18.398438 66.378906 18.546875 C 66.53125 18.695312 66.578125 18.894531 66.578125 19.097656 C 66.578125 19.296875 66.53125 19.445312 66.429688 19.597656 C 66.332031 19.746094 66.183594 19.84375 65.984375 19.945312 C 65.785156 20.046875 65.535156 20.09375 65.289062 20.09375 C 64.839844 20.09375 64.492188 19.996094 64.195312 19.796875 C 63.894531 19.597656 63.746094 19.296875 63.699219 18.945312 L 64.691406 18.945312 C 64.691406 19.097656 64.789062 19.195312 64.890625 19.296875 C 64.988281 19.394531 65.136719 19.394531 65.289062 19.394531 C 65.386719 19.394531 65.488281 19.347656 65.535156 19.296875 C 65.585938 19.246094 65.636719 19.144531 65.636719 19.097656 C 65.636719 18.996094 65.585938 18.894531 65.488281 18.847656 C 65.386719 18.796875 65.1875 18.746094 64.941406 18.695312 C 64.691406 18.648438 64.492188 18.597656 64.34375 18.546875 C 64.195312 18.496094 64.046875 18.398438 63.945312 18.246094 C 63.847656 18.097656 63.746094 17.949219 63.746094 17.699219 C 63.746094 17.398438 63.847656 17.148438 64.09375 16.949219 C 64.34375 16.75 64.640625 16.648438 65.039062 16.648438 C 65.386719 16.648438 65.734375 16.75 65.984375 16.949219 Z M 65.984375 16.949219 "/>
<path style=" stroke:none;fill-rule:nonzero;fill:rgb(7.843137%,65.490196%,87.843137%);fill-opacity:1;" d="M 69.3125 15.75 L 69.3125 20.046875 L 68.269531 20.046875 L 68.269531 15.75 Z M 69.3125 15.75 "/>
<path style=" stroke:none;fill-rule:nonzero;fill:rgb(7.843137%,65.490196%,87.843137%);fill-opacity:1;" d="M 73.089844 17.046875 C 73.335938 17.296875 73.4375 17.648438 73.4375 18.148438 L 73.4375 20.144531 L 72.394531 20.144531 L 72.394531 18.296875 C 72.394531 18.046875 72.34375 17.898438 72.195312 17.746094 C 72.046875 17.597656 71.894531 17.546875 71.746094 17.546875 C 71.546875 17.546875 71.347656 17.597656 71.25 17.746094 C 71.152344 17.898438 71.050781 18.097656 71.050781 18.296875 L 71.050781 20.09375 L 70.058594 20.09375 L 70.058594 16.699219 L 71.101562 16.699219 L 71.101562 17.296875 C 71.199219 17.097656 71.347656 16.949219 71.546875 16.796875 C 71.746094 16.648438 71.945312 16.597656 72.195312 16.597656 C 72.542969 16.648438 72.839844 16.75 73.089844 17.046875 Z M 73.089844 17.046875 "/>
<path style=" stroke:none;fill-rule:nonzero;fill:rgb(7.843137%,65.490196%,87.843137%);fill-opacity:1;" d="M 76.714844 17 C 77.011719 17.25 77.210938 17.597656 77.261719 17.996094 L 76.167969 17.996094 C 76.121094 17.847656 76.070312 17.746094 75.96875 17.648438 C 75.871094 17.546875 75.722656 17.546875 75.574219 17.546875 C 75.375 17.546875 75.226562 17.597656 75.125 17.746094 C 75.027344 17.898438 74.925781 18.097656 74.925781 18.398438 C 74.925781 18.695312 74.976562 18.894531 75.125 19.046875 C 75.226562 19.195312 75.375 19.246094 75.574219 19.246094 C 75.722656 19.246094 75.871094 19.195312 75.96875 19.144531 C 76.070312 19.046875 76.121094 18.945312 76.167969 18.796875 L 77.261719 18.796875 C 77.164062 19.195312 77.011719 19.546875 76.714844 19.796875 C 76.417969 20.046875 76.070312 20.144531 75.621094 20.144531 C 75.273438 20.144531 75.027344 20.09375 74.726562 19.945312 C 74.429688 19.796875 74.28125 19.597656 74.132812 19.347656 C 73.984375 19.097656 73.933594 18.796875 73.933594 18.398438 C 73.933594 18.046875 73.984375 17.746094 74.132812 17.449219 C 74.28125 17.199219 74.480469 17 74.726562 16.847656 C 74.976562 16.699219 75.273438 16.648438 75.621094 16.648438 C 76.019531 16.648438 76.417969 16.75 76.714844 17 Z M 76.714844 17 "/>
<path style=" stroke:none;fill-rule:nonzero;fill:rgb(7.843137%,65.490196%,87.843137%);fill-opacity:1;" d="M 78.652344 19.046875 L 78.652344 20.09375 L 77.609375 20.09375 L 77.609375 19.046875 Z M 78.652344 19.046875 "/>
</g>
</svg>
